<mxfile host="app.diagrams.net" agent="Mozilla/5.0 (Windows NT 10.0; Win64; x64) AppleWebKit/537.36 (KHTML, like Gecko) Chrome/129.0.0.0 Safari/537.36" version="24.7.17">
  <diagram name="Strona-1" id="kUZFNPuSJkptB54xIQaK">
    <mxGraphModel dx="1050" dy="1731" grid="1" gridSize="10" guides="1" tooltips="1" connect="1" arrows="1" fold="1" page="1" pageScale="1" pageWidth="827" pageHeight="1169" math="0" shadow="0">
      <root>
        <mxCell id="0" />
        <mxCell id="1" parent="0" />
        <mxCell id="wqokC4iIDW6T0Lnhty1u-1" value="Fake Arms Service" style="rounded=0;whiteSpace=wrap;html=1;" vertex="1" parent="1">
          <mxGeometry x="220" y="130" width="120" height="60" as="geometry" />
        </mxCell>
        <mxCell id="wqokC4iIDW6T0Lnhty1u-4" style="edgeStyle=orthogonalEdgeStyle;rounded=0;orthogonalLoop=1;jettySize=auto;html=1;entryX=0.5;entryY=0;entryDx=0;entryDy=0;" edge="1" parent="1" source="wqokC4iIDW6T0Lnhty1u-2" target="wqokC4iIDW6T0Lnhty1u-1">
          <mxGeometry relative="1" as="geometry" />
        </mxCell>
        <mxCell id="wqokC4iIDW6T0Lnhty1u-2" value="Services" style="whiteSpace=wrap;html=1;rounded=0;" vertex="1" parent="1">
          <mxGeometry x="220" width="120" height="60" as="geometry" />
        </mxCell>
        <mxCell id="wqokC4iIDW6T0Lnhty1u-6" style="edgeStyle=orthogonalEdgeStyle;rounded=0;orthogonalLoop=1;jettySize=auto;html=1;entryX=0.5;entryY=0;entryDx=0;entryDy=0;" edge="1" parent="1" source="wqokC4iIDW6T0Lnhty1u-5" target="wqokC4iIDW6T0Lnhty1u-2">
          <mxGeometry relative="1" as="geometry" />
        </mxCell>
        <mxCell id="wqokC4iIDW6T0Lnhty1u-8" style="edgeStyle=orthogonalEdgeStyle;rounded=0;orthogonalLoop=1;jettySize=auto;html=1;" edge="1" parent="1" source="wqokC4iIDW6T0Lnhty1u-5" target="wqokC4iIDW6T0Lnhty1u-7">
          <mxGeometry relative="1" as="geometry" />
        </mxCell>
        <mxCell id="wqokC4iIDW6T0Lnhty1u-13" style="edgeStyle=orthogonalEdgeStyle;rounded=0;orthogonalLoop=1;jettySize=auto;html=1;entryX=0.5;entryY=0;entryDx=0;entryDy=0;" edge="1" parent="1" source="wqokC4iIDW6T0Lnhty1u-5" target="wqokC4iIDW6T0Lnhty1u-14">
          <mxGeometry relative="1" as="geometry">
            <mxPoint x="670" y="-10" as="targetPoint" />
          </mxGeometry>
        </mxCell>
        <mxCell id="wqokC4iIDW6T0Lnhty1u-5" value="Tool System" style="whiteSpace=wrap;html=1;rounded=0;" vertex="1" parent="1">
          <mxGeometry x="420" y="-130" width="120" height="60" as="geometry" />
        </mxCell>
        <mxCell id="wqokC4iIDW6T0Lnhty1u-10" value="" style="edgeStyle=orthogonalEdgeStyle;rounded=0;orthogonalLoop=1;jettySize=auto;html=1;" edge="1" parent="1" source="wqokC4iIDW6T0Lnhty1u-7" target="wqokC4iIDW6T0Lnhty1u-9">
          <mxGeometry relative="1" as="geometry" />
        </mxCell>
        <mxCell id="wqokC4iIDW6T0Lnhty1u-7" value="Classes" style="whiteSpace=wrap;html=1;rounded=0;" vertex="1" parent="1">
          <mxGeometry x="420" width="120" height="60" as="geometry" />
        </mxCell>
        <mxCell id="wqokC4iIDW6T0Lnhty1u-12" value="" style="edgeStyle=orthogonalEdgeStyle;rounded=0;orthogonalLoop=1;jettySize=auto;html=1;" edge="1" parent="1" source="wqokC4iIDW6T0Lnhty1u-9" target="wqokC4iIDW6T0Lnhty1u-11">
          <mxGeometry relative="1" as="geometry" />
        </mxCell>
        <mxCell id="wqokC4iIDW6T0Lnhty1u-9" value="Tool" style="whiteSpace=wrap;html=1;rounded=0;" vertex="1" parent="1">
          <mxGeometry x="420" y="130" width="120" height="60" as="geometry" />
        </mxCell>
        <mxCell id="wqokC4iIDW6T0Lnhty1u-11" value="Gun" style="whiteSpace=wrap;html=1;rounded=0;" vertex="1" parent="1">
          <mxGeometry x="420" y="260" width="120" height="60" as="geometry" />
        </mxCell>
        <mxCell id="wqokC4iIDW6T0Lnhty1u-18" value="" style="edgeStyle=orthogonalEdgeStyle;rounded=0;orthogonalLoop=1;jettySize=auto;html=1;" edge="1" parent="1" source="wqokC4iIDW6T0Lnhty1u-14" target="wqokC4iIDW6T0Lnhty1u-17">
          <mxGeometry relative="1" as="geometry" />
        </mxCell>
        <mxCell id="wqokC4iIDW6T0Lnhty1u-20" style="edgeStyle=orthogonalEdgeStyle;rounded=0;orthogonalLoop=1;jettySize=auto;html=1;entryX=0.5;entryY=0;entryDx=0;entryDy=0;" edge="1" parent="1" source="wqokC4iIDW6T0Lnhty1u-14" target="wqokC4iIDW6T0Lnhty1u-19">
          <mxGeometry relative="1" as="geometry" />
        </mxCell>
        <mxCell id="wqokC4iIDW6T0Lnhty1u-14" value="Handlers" style="whiteSpace=wrap;html=1;rounded=0;" vertex="1" parent="1">
          <mxGeometry x="707" width="120" height="60" as="geometry" />
        </mxCell>
        <mxCell id="wqokC4iIDW6T0Lnhty1u-17" value="ToolHandler" style="whiteSpace=wrap;html=1;rounded=0;" vertex="1" parent="1">
          <mxGeometry x="620" y="130" width="120" height="60" as="geometry" />
        </mxCell>
        <mxCell id="wqokC4iIDW6T0Lnhty1u-19" value="GunsHandler" style="whiteSpace=wrap;html=1;rounded=0;" vertex="1" parent="1">
          <mxGeometry x="790" y="130" width="120" height="60" as="geometry" />
        </mxCell>
      </root>
    </mxGraphModel>
  </diagram>
</mxfile>
